<svg width="223" height="223" viewBox="0 0 223 223" fill="none" xmlns="http://www.w3.org/2000/svg">
<path d="M109.117 14.4006C109.332 14.4196 109.548 14.4435 109.761 14.486C110.363 14.6048 110.963 14.7288 111.563 14.8583C112.163 14.9877 112.761 15.1224 113.359 15.2625C113.956 15.4026 114.552 15.548 115.147 15.6986C115.741 15.8493 116.334 16.0053 116.926 16.1665C117.518 16.3277 118.109 16.4942 118.698 16.6659C119.287 16.8376 119.874 17.0146 120.46 17.1967C121.046 17.3788 121.63 17.5662 122.212 17.7588C122.795 17.9513 123.376 18.149 123.955 18.3519C124.534 18.5548 125.111 18.7628 125.686 18.976C126.261 19.1891 126.835 19.4073 127.406 19.6307C127.977 19.8541 128.547 20.0825 129.114 20.3159C129.681 20.5493 130.247 20.7878 130.81 21.0313C131.373 21.2748 131.934 21.5233 132.492 21.7768C133.051 22.0304 133.607 22.2888 134.161 22.5522C134.715 22.8155 135.267 23.0839 135.816 23.3571C136.366 23.6302 136.913 23.9082 137.457 24.1911C138.001 24.4741 138.543 24.7618 139.082 25.0544C139.622 25.3469 140.158 25.6443 140.692 25.9464C141.226 26.2485 141.757 26.5553 142.286 26.8667C142.814 27.1783 143.34 27.4945 143.863 27.8155C144.386 28.1364 144.906 28.4619 145.423 28.792C145.94 29.1222 146.454 29.4569 146.965 29.7962C147.476 30.1355 147.984 30.4793 148.489 30.8276C148.994 31.1759 149.496 31.5286 149.995 31.8859C150.494 32.2431 150.989 32.6047 151.482 32.9709C151.974 33.3369 152.463 33.7072 152.949 34.0819C153.434 34.4567 153.917 34.8357 154.396 35.2192C154.875 35.6024 155.35 35.9899 155.822 36.3816C156.294 36.7735 156.763 37.1694 157.228 37.5696C157.693 37.9697 158.154 38.3739 158.612 38.7822C159.07 39.1906 159.525 39.6029 159.975 40.0193C160.426 40.4357 160.872 40.8561 161.315 41.2804C164.802 44.6542 168.115 48.2191 170.867 52.2225C172.468 52.9289 174.208 53.3732 175.876 53.9015C178.095 54.6252 180.304 55.3815 182.501 56.1704C183.969 56.6903 185.489 57.1683 186.898 57.8312C187.156 72.4 186.974 86.9976 186.923 101.568L187.009 122.246L199.629 122.245C195.749 127.806 191.624 133.195 187.746 138.759C190.048 141.822 192.167 145.03 194.388 148.151C195.926 150.31 197.565 152.4 199.127 154.542C193.466 154.465 187.804 154.436 182.141 154.454C179.665 160.02 175.013 166.273 171.29 171.12C161.199 184.256 146.553 195.299 131.329 201.742C128.364 202.997 125.285 203.992 122.227 204.997C118.531 206.21 113.067 207.862 109.297 208.354C108.132 208.293 106.921 207.953 105.781 207.71C101.238 206.721 96.7698 205.469 92.3748 203.953C91.8022 203.754 91.2315 203.55 90.6626 203.34C90.0938 203.13 89.5271 202.915 88.9623 202.695C88.3976 202.474 87.8351 202.249 87.2745 202.018C86.714 201.787 86.1557 201.55 85.5996 201.309C85.0436 201.067 84.4898 200.821 83.9384 200.569C83.3869 200.317 82.8378 200.06 82.2912 199.798C81.7446 199.536 81.2005 199.268 80.659 198.996C80.1173 198.723 79.5783 198.446 79.042 198.163C78.5055 197.881 77.9719 197.593 77.4409 197.301C76.91 197.008 76.3818 196.711 75.8564 196.408C75.331 196.106 74.8085 195.798 74.2889 195.486C73.7693 195.174 73.2527 194.857 72.739 194.535C72.2254 194.213 71.7147 193.886 71.2072 193.554C70.6996 193.223 70.1953 192.887 69.6941 192.546C69.1928 192.205 68.6948 191.859 68.2002 191.508C67.7054 191.158 67.214 190.803 66.7261 190.443C66.238 190.084 65.7533 189.72 65.2722 189.351C64.7909 188.982 64.3132 188.609 63.839 188.231C63.3647 187.853 62.8941 187.471 62.4272 187.085C61.9601 186.698 61.4968 186.307 61.0371 185.912C60.5774 185.517 60.1214 185.117 59.6693 184.713C59.2171 184.31 58.7687 183.902 58.3241 183.489C57.8797 183.077 57.4392 182.661 57.0025 182.24C56.5657 181.82 56.133 181.395 55.7043 180.967C55.2756 180.538 54.8509 180.105 54.4303 179.669C54.0097 179.232 53.5932 178.792 53.1808 178.347C52.7684 177.903 52.3604 177.455 51.9565 177.003C51.5526 176.55 51.1529 176.095 50.7576 175.635C50.3623 175.175 49.9713 174.712 49.5847 174.245C49.198 173.778 48.8158 173.308 48.4379 172.834C48.0601 172.36 47.6868 171.882 47.3179 171.401C46.9491 170.92 46.5848 170.435 46.2251 169.947C42.5386 165.034 39.2668 159.925 36.6195 154.372C30.7229 154.34 24.7984 154.314 18.9038 154.425C22.6051 148.934 26.8434 143.795 30.6129 138.347C28.845 135.881 27.0404 133.442 25.199 131.03C22.9477 128.133 20.5655 125.246 18.6106 122.14C22.809 122.218 27.0155 122.175 31.215 122.18C31.3551 115.112 31.2116 108.016 31.2076 100.946L31.2131 58.0259C35.1334 56.7512 39.0113 55.2029 42.8574 53.7196C44.192 53.2048 45.9868 52.7366 47.1731 51.9398C48.3292 51.1632 49.4575 49.2302 50.4327 48.1298C52.6792 45.5947 54.9495 43.0688 57.4178 40.7464C71.0789 27.8926 84.9345 20.4225 103.099 15.8605C105.096 15.3589 107.097 14.806 109.117 14.4006Z" fill="#A8150D"/>
<path d="M51.2765 154.385C52.2114 154.352 53.143 154.376 54.0777 154.399C56.4103 158.385 59.3925 162.092 62.4319 165.559C62.9939 166.205 63.5651 166.844 64.1456 167.474C64.7259 168.104 65.3151 168.725 65.913 169.338C66.5112 169.951 67.118 170.556 67.7334 171.152C68.3488 171.747 68.9727 172.334 69.605 172.912C70.2371 173.49 70.8774 174.059 71.5259 174.618C72.1744 175.178 72.8308 175.728 73.495 176.269C74.1592 176.809 74.831 177.341 75.5105 177.862C76.19 178.384 76.8768 178.895 77.5709 179.397C78.265 179.899 78.9661 180.391 79.6743 180.873C80.3825 181.355 81.0974 181.826 81.819 182.287C82.5407 182.749 83.2688 183.2 84.0034 183.64C84.738 184.081 85.4788 184.511 86.2256 184.93C86.9725 185.349 87.7253 185.758 88.4839 186.155C89.2425 186.553 90.0066 186.94 90.7762 187.316C91.5459 187.692 92.3208 188.057 93.1009 188.41C93.881 188.764 94.666 189.106 95.4559 189.438C97.8257 190.418 100.258 191.203 102.69 192.011C104.994 192.775 107.285 193.558 109.634 194.173C110.22 194.326 110.807 194.475 111.395 194.62C116.693 193.173 121.963 191.647 127.058 189.576C127.883 189.237 128.703 188.886 129.517 188.523C130.331 188.159 131.139 187.783 131.942 187.395C132.745 187.006 133.541 186.606 134.331 186.193C135.122 185.78 135.906 185.356 136.683 184.919C137.46 184.482 138.231 184.034 138.994 183.573C139.758 183.113 140.514 182.641 141.264 182.158C142.013 181.674 142.754 181.179 143.489 180.673C144.223 180.167 144.949 179.65 145.667 179.121C146.385 178.593 147.095 178.053 147.797 177.503C148.498 176.953 149.192 176.392 149.876 175.821C150.561 175.25 151.236 174.668 151.903 174.076C152.57 173.484 153.227 172.882 153.875 172.269C154.524 171.657 155.162 171.035 155.792 170.404C156.421 169.772 157.04 169.13 157.65 168.48C158.259 167.829 158.859 167.169 159.448 166.5C160.038 165.831 160.617 165.153 161.185 164.466C162.719 162.601 164.148 160.658 165.473 158.638C166.284 157.404 167.047 155.919 167.989 154.804C168.153 154.61 168.263 154.562 168.508 154.525L171.486 154.558C171.438 154.65 171.391 154.742 171.339 154.832C169.782 157.569 167.732 160.238 165.855 162.767C165.273 163.544 164.679 164.311 164.072 165.068C163.465 165.825 162.845 166.573 162.214 167.31C161.583 168.047 160.939 168.773 160.285 169.489C159.629 170.205 158.963 170.911 158.285 171.605C157.607 172.299 156.918 172.983 156.217 173.654C155.517 174.326 154.806 174.987 154.084 175.635C153.362 176.284 152.63 176.921 151.887 177.546C151.145 178.17 150.392 178.783 149.629 179.383C148.867 179.983 148.095 180.571 147.313 181.146C146.531 181.721 145.74 182.284 144.94 182.833C144.14 183.382 143.331 183.918 142.513 184.441C141.696 184.964 140.87 185.474 140.036 185.97C139.202 186.466 138.36 186.948 137.51 187.416C136.66 187.885 135.802 188.339 134.937 188.78C134.073 189.221 133.201 189.647 132.322 190.059C131.444 190.471 130.558 190.869 129.667 191.252C123.761 193.793 117.618 195.68 111.414 197.337C108.099 196.444 104.746 195.484 101.475 194.441C84.2608 188.948 67.7895 177.271 56.8683 162.895C54.8225 160.202 52.8333 157.395 51.2765 154.385Z" fill="#FEFEFE"/>
<path d="M57.2567 61.7895C65.9426 47.4859 79.7684 36.9649 95.2878 31.0009C100.082 29.1587 105.206 27.7711 110.201 26.5818C110.724 26.4575 111.279 26.354 111.817 26.4022C113.037 26.5117 114.353 26.9732 115.54 27.284C121.135 28.7483 126.747 30.5219 132.007 32.9431C135.411 34.5504 138.712 36.3484 141.909 38.3371C142.833 38.9223 143.744 39.5261 144.644 40.1485C145.543 40.7709 146.429 41.4114 147.302 42.0701C148.175 42.7288 149.034 43.405 149.88 44.0987C150.725 44.7925 151.556 45.5032 152.372 46.2309C153.189 46.9587 153.99 47.7028 154.776 48.4633C155.562 49.2238 156.332 50 157.086 50.792C157.841 51.5838 158.578 52.3908 159.3 53.213C160.021 54.035 160.725 54.8714 161.412 55.7224C162.926 57.6346 164.068 59.815 165.584 61.707C167.87 62.6021 170.252 63.3177 172.579 64.1012C174.537 64.7602 176.494 65.517 178.472 66.1032L178.544 122.163L176.128 122.151C176.026 104.062 176.024 85.9724 176.122 67.8831C172.199 66.2539 168.012 65.1777 163.999 63.7729C163.242 62.8068 162.619 61.7018 161.929 60.6846C160.773 59.0099 159.556 57.3806 158.279 55.7967C151.854 47.924 141.733 40.4363 132.658 35.9917C127.271 33.3539 121.422 31.3773 115.619 29.8908C114.371 29.5711 113.001 29.128 111.709 29.0855C109.796 29.0223 106.734 30.0833 104.808 30.5951C98.2421 32.3401 90.8955 35.2062 84.9732 38.5708C79.4206 41.7251 72.7813 46.8264 68.3442 51.3957C66.4443 53.3863 64.6744 55.4864 63.0344 57.6961C62.0963 58.9606 59.5851 63.2065 58.7613 63.8315C57.7478 64.6006 49.3629 67.2601 47.3622 67.9446C47.4377 73.5953 47.3541 79.2579 47.3565 84.9102L47.3691 122.184L44.925 122.183C44.8094 114.205 44.9222 106.217 44.9315 98.2384L44.8593 66.1131C47.0562 65.4127 49.2038 64.5954 51.379 63.8345C53.3348 63.1504 55.3187 62.5206 57.2567 61.7895Z" fill="#FEFEFE"/>
<path d="M89.1522 154.379C98.324 154.26 107.509 154.338 116.682 154.332L127.868 154.355C129.932 154.364 132.026 154.3 134.084 154.422C135.492 154.624 137.005 154.542 138.428 154.558L145.869 154.621C153.396 154.649 160.987 154.794 168.508 154.524C168.263 154.562 168.153 154.61 167.989 154.803C167.047 155.918 166.284 157.404 165.473 158.638C164.148 160.658 162.719 162.6 161.185 164.466C160.617 165.153 160.038 165.831 159.448 166.5C158.859 167.169 158.259 167.829 157.65 168.48C157.04 169.13 156.421 169.771 155.792 170.403C155.162 171.035 154.524 171.657 153.875 172.269C153.227 172.881 152.569 173.484 151.903 174.076C151.236 174.668 150.56 175.249 149.876 175.821C149.191 176.392 148.498 176.953 147.797 177.503C147.095 178.053 146.385 178.593 145.667 179.121C144.949 179.649 144.222 180.167 143.488 180.673C142.754 181.179 142.013 181.674 141.264 182.157C140.514 182.641 139.758 183.113 138.994 183.573C138.231 184.034 137.46 184.482 136.683 184.919C135.905 185.356 135.122 185.78 134.331 186.193C133.541 186.606 132.744 187.006 131.942 187.395C131.139 187.783 130.331 188.159 129.516 188.523C128.702 188.886 127.883 189.237 127.058 189.576C121.963 191.647 116.693 193.173 111.394 194.62C110.807 194.475 110.22 194.326 109.634 194.173C107.285 193.558 104.993 192.775 102.69 192.01C100.258 191.203 97.8256 190.418 95.4558 189.437C94.6659 189.106 93.8809 188.764 93.1008 188.41C92.3207 188.056 91.5458 187.691 90.7761 187.316C90.0065 186.94 89.2424 186.553 88.4838 186.155C87.7253 185.758 86.9725 185.349 86.2255 184.93C85.4787 184.51 84.7379 184.081 84.0033 183.64C83.2687 183.2 82.5406 182.749 81.8191 182.287C81.0974 181.826 80.3824 181.354 79.6742 180.873C78.966 180.391 78.2649 179.899 77.5708 179.397C76.8767 178.895 76.1899 178.383 75.5104 177.862C74.831 177.34 74.1591 176.809 73.4949 176.268C72.8307 175.728 72.1744 175.178 71.5258 174.618C70.8773 174.058 70.237 173.49 69.6049 172.912C68.9726 172.334 68.3487 171.747 67.7333 171.151C67.1179 170.556 66.5111 169.951 65.913 169.338C65.315 168.725 64.7258 168.103 64.1455 167.473C63.5651 166.843 62.9938 166.205 62.4318 165.559C59.3924 162.092 56.4102 158.384 54.0776 154.399L76.9571 154.464C81.0073 154.466 85.1084 154.585 89.1522 154.379Z" fill="#E31C16"/>
<path d="M89.1523 154.379C98.3241 154.26 107.509 154.338 116.682 154.332L127.869 154.355C129.932 154.364 132.026 154.3 134.084 154.422C134.031 156.638 133.593 158.907 133.369 161.12C133.128 163.491 133.111 166.06 132.601 168.383C132.463 169.01 132.229 169.557 131.85 170.079C131.054 171.171 129.851 172.025 128.494 172.203C126.884 172.416 125.081 172.255 123.455 172.249L113.85 172.252L101.158 172.264C98.9955 172.263 96.6592 172.426 94.5146 172.171C93.7556 172.08 93.0952 171.729 92.5015 171.257C91.6944 170.615 91.1716 169.945 90.8183 168.96C90.1728 167.16 90.1802 164.534 89.9984 162.606C89.7376 159.861 89.4556 157.119 89.1523 154.379Z" fill="#FEFEFE"/>
<path d="M139.766 127.778L171.588 127.804L184.055 127.761C186.351 127.761 188.664 127.708 190.956 127.833C190.155 129.213 189.063 130.491 188.106 131.769C186.381 134.058 184.69 136.372 183.035 138.712L190.084 148.615L83.2439 148.552L32.3566 148.621C33.1861 147.589 33.9074 146.438 34.6902 145.366L39.7942 138.442C37.5422 134.927 34.4271 131.251 31.9127 127.816C35.9805 127.735 40.0627 127.792 44.1316 127.79L67.9137 127.799L139.766 127.778Z" fill="#9ABD2D"/>
<path d="M47.3622 67.9443C49.363 67.2598 57.7478 64.6004 58.7614 63.8312C59.5852 63.2062 62.0963 58.9603 63.0345 57.6959C64.6745 55.4862 66.4444 53.3861 68.3443 51.3955C72.7814 46.8262 79.4206 41.7248 84.9732 38.5706C90.8956 35.206 98.2422 32.3399 104.808 30.5948C106.734 30.0831 109.796 29.0221 111.709 29.0852C113.001 29.1277 114.371 29.5709 115.619 29.8906C121.422 31.3771 127.271 33.3536 132.658 35.9915C141.733 40.436 151.854 47.9237 158.279 55.7964C159.556 57.3803 160.773 59.0097 161.929 60.6844C162.619 61.7016 163.242 62.8066 163.999 63.7726C168.012 65.1775 172.199 66.2537 176.122 67.8828C176.024 85.9727 176.026 104.062 176.129 122.151L146.308 122.183C145.529 122.283 144.685 122.299 143.904 122.211L141.626 122.161C136.336 121.967 130.994 122.146 125.698 122.147L102.416 122.039L87.1995 122.083C85.2313 122.103 83.1849 121.909 81.2286 122.128C79.8302 122.158 78.4317 122.172 77.033 122.172C67.1507 122.3 57.2529 122.197 47.3692 122.184L47.3566 84.91C47.3542 79.2576 47.4378 73.5951 47.3622 67.9443Z" fill="#FDBD27"/>
<path d="M109.414 49.8294C109.511 47.1837 109.772 44.4071 111.709 42.4064C113.272 40.7919 116.074 39.8415 118.291 39.8731C118.863 39.8811 119.479 39.9998 119.883 40.4386C120.17 40.7505 120.234 41.2163 120.194 41.6242C120.046 43.1341 118.007 42.68 116.938 42.8339C115.905 42.9831 114.803 43.386 113.997 44.0563C112.36 45.4185 112.242 47.6837 112.102 49.6474L111.997 52.3931C111.849 53.3744 112.173 54.4576 111.497 55.3145C111.318 55.5412 111.082 55.7002 110.782 55.6941C110.504 55.6885 110.226 55.5073 110.036 55.3141C109.051 54.3143 109.419 51.2086 109.414 49.8294Z" fill="#FEFEFE"/>
<path d="M50.4885 90.3394C52.8352 92.1001 54.9442 94.2122 57.0716 96.2247C62.9885 101.821 68.4668 107.746 73.9308 113.777C75.1725 115.137 76.3941 116.515 77.5955 117.911C78.3109 118.749 80.4784 121.679 81.2286 122.128C79.8302 122.158 78.4316 122.172 77.033 122.171C74.0861 119.109 71.3526 115.576 67.996 112.961C64.229 110.026 60.122 107.594 56.2239 104.86C55.9412 104.662 55.5697 104.415 55.3815 104.124C54.7421 103.135 54.4087 101.718 53.9986 100.606C52.7403 97.1946 51.5345 93.822 50.4885 90.3394Z" fill="#E31C16"/>
<path d="M150.873 111.885C150.501 110.544 149.911 109.017 150.63 107.703C151.795 105.573 153.808 103.195 155.237 101.169L161.35 92.5943C162.373 91.1784 163.349 89.7064 164.44 88.3434C164.867 87.8107 165.664 86.7896 166.308 86.532C167.288 86.1404 168.577 86.7525 169.4 87.2613C170.522 87.9547 171.956 88.8822 172.3 90.2363C172.559 91.2559 172.01 92.2627 171.481 93.1026C170.473 94.6998 169.29 96.2109 168.19 97.7477L162.097 106.202C161.258 107.336 160.429 108.478 159.61 109.627C159.01 110.482 158.439 111.435 157.73 112.202C157.176 112.8 156.635 113.229 155.821 113.391C155.109 113.533 154.318 113.469 153.602 113.372C151.184 115.219 148.264 119.623 146.308 122.183C145.529 122.283 144.685 122.299 143.904 122.211C145.378 120.432 150.25 113.854 150.873 111.885Z" fill="#E31C16"/>
<path d="M112.102 49.6472C113.847 49.7365 115.572 49.8399 117.295 50.1518C117.751 50.2377 118.204 50.3328 118.656 50.437C119.107 50.5411 119.557 50.6542 120.004 50.7763C120.451 50.8986 120.895 51.0296 121.337 51.1696C121.779 51.3094 122.217 51.4581 122.653 51.6156C123.089 51.7731 123.522 51.9393 123.951 52.1143C124.38 52.2891 124.805 52.4724 125.227 52.6642C125.649 52.8561 126.067 53.0564 126.481 53.265C126.894 53.4737 127.304 53.6904 127.709 53.9153C128.114 54.1404 128.514 54.3733 128.91 54.6144C129.306 54.8555 129.697 55.1044 130.083 55.3611C130.469 55.6178 130.849 55.8821 131.224 56.154C131.599 56.4259 131.969 56.7053 132.333 56.992C132.697 57.2787 133.055 57.5726 133.408 57.8738C133.76 58.1747 134.106 58.4827 134.446 58.7978C134.786 59.1127 135.119 59.4343 135.447 59.7625C135.774 60.0908 136.094 60.4255 136.408 60.7667C136.602 60.9849 136.793 61.2054 136.981 61.4281C137.17 61.651 137.356 61.876 137.539 62.1032C137.723 62.3304 137.903 62.5598 138.081 62.7914C138.258 63.0231 138.433 63.2568 138.605 63.4926C138.778 63.7284 138.947 63.9662 139.113 64.206C139.28 64.4459 139.443 64.6877 139.603 64.9315C139.764 65.1754 139.922 65.4211 140.076 65.6686C140.231 65.9163 140.383 66.1657 140.531 66.4169C140.68 66.6682 140.825 66.9212 140.968 67.1758C141.111 67.4306 141.25 67.6871 141.386 67.9452C141.523 68.2032 141.656 68.4628 141.786 68.7242C141.916 68.9855 142.043 69.2484 142.167 69.5128C142.291 69.7772 142.411 70.043 142.529 70.3103C142.646 70.5776 142.76 70.8461 142.871 71.1161C142.982 71.3861 143.09 71.6575 143.194 71.9301C143.299 72.2026 143.4 72.4764 143.498 72.7515C143.596 73.0265 143.69 73.3027 143.781 73.5799C143.873 73.8572 143.96 74.1356 144.045 74.4151C144.129 74.6946 144.21 74.975 144.288 75.2564C144.366 75.5377 144.44 75.82 144.511 76.103C144.582 76.3863 144.65 76.6703 144.714 76.955C144.778 77.2399 144.839 77.5253 144.896 77.8115C144.953 78.0978 145.007 78.3847 145.057 78.6724C145.108 78.9598 145.155 79.2479 145.198 79.5365C145.242 79.8252 145.281 80.1145 145.318 80.4041C145.354 80.6937 145.387 80.9837 145.417 81.2741C145.447 81.5644 145.473 81.8552 145.495 82.1463C145.518 82.4374 145.536 82.7287 145.552 83.0202C145.567 83.3117 145.579 83.6033 145.588 83.895C145.596 84.1868 145.601 84.4787 145.603 84.7707C145.604 85.0626 145.602 85.3546 145.596 85.6464C145.591 85.9382 145.582 86.2299 145.569 86.5216L145.564 86.6283C147.537 87.1812 149.109 88.0558 150.154 89.8849C151.074 91.4969 151.357 93.6435 150.826 95.4268C150.277 97.2702 148.756 98.8722 147.064 99.7389C146.4 100.079 145.679 100.304 144.953 100.464C143.762 107.684 142.888 114.945 141.626 122.161C136.336 121.967 130.994 122.146 125.698 122.147L102.416 122.039L87.1995 122.083C85.2313 122.103 83.1848 121.909 81.2286 122.128C81.3266 120.777 80.832 118.827 80.6367 117.447C80.1548 114.041 79.6269 110.642 79.0528 107.25C78.6857 104.98 78.3903 102.646 77.8013 100.424C77.3265 100.281 76.8485 100.119 76.391 99.9269C74.6923 99.2122 73.2877 97.8609 72.5934 96.1455C71.931 94.5096 71.9647 92.478 72.6875 90.866C73.5183 89.0126 75.027 87.8309 76.8973 87.1419C76.8441 85.8624 76.8454 84.583 76.9012 83.3036C76.9154 83.0195 76.933 82.7356 76.9541 82.4519C76.9752 82.1682 76.9997 81.8848 77.0277 81.6017C77.0557 81.3186 77.0872 81.0359 77.122 80.7535C77.1568 80.4711 77.1951 80.1893 77.2368 79.9079C77.2784 79.6264 77.3236 79.3454 77.3722 79.0651C77.4207 78.7849 77.4726 78.5052 77.5279 78.226C77.5832 77.947 77.6419 77.6687 77.7039 77.3911C77.766 77.1135 77.8315 76.8366 77.9003 76.5605C77.9691 76.2845 78.0412 76.0094 78.1165 75.7351C78.192 75.4608 78.2709 75.1874 78.3531 74.915C78.4353 74.6426 78.5207 74.3713 78.6094 74.101C78.6981 73.8306 78.79 73.5615 78.8853 73.2935C78.9805 73.0255 79.079 72.7586 79.1806 72.4929C79.2824 72.2273 79.3873 71.9628 79.4955 71.6996C79.6037 71.4365 79.715 71.1747 79.8296 70.9143C79.944 70.6539 80.0616 70.3949 80.1826 70.1373C80.3034 69.8797 80.4272 69.6237 80.5541 69.3692C80.6811 69.1145 80.8113 68.8616 80.9446 68.6103C81.0777 68.3588 81.2139 68.109 81.3531 67.8609C81.4924 67.6128 81.6345 67.3664 81.7797 67.1218C81.9249 66.8772 82.0731 66.6344 82.2242 66.3934C82.3753 66.1523 82.5294 65.9132 82.6863 65.6758C82.8432 65.4386 83.003 65.2032 83.1656 64.9698C83.3282 64.7363 83.4936 64.5049 83.6619 64.2755C83.8302 64.0461 84.0012 63.8189 84.175 63.5937C84.3488 63.3684 84.5252 63.1452 84.7044 62.9242C84.8836 62.7033 85.0654 62.4845 85.2499 62.2681C85.4344 62.0515 85.6216 61.8372 85.8113 61.6252C86.0011 61.4133 86.1934 61.2036 86.3882 60.9963C86.5829 60.789 86.7801 60.5841 86.9799 60.3815C87.1798 60.179 87.3821 59.9789 87.5866 59.7814C87.7914 59.5838 87.9984 59.3887 88.2077 59.196C93.1582 54.7144 99.0862 51.5328 105.676 50.3004C106.821 50.0863 108.171 49.7736 109.332 49.8317L109.414 49.8295C109.419 51.2087 109.051 54.3144 110.036 55.3142C110.226 55.5073 110.504 55.6886 110.782 55.6942C111.082 55.7003 111.318 55.5413 111.497 55.3146C112.173 54.4577 111.849 53.3745 111.997 52.3932L112.102 49.6472Z" fill="#E31C16"/>
<path d="M107.427 89.4501L132.766 89.4372C135.019 89.4344 137.273 89.4684 139.526 89.4375C141.019 89.4168 142.644 89.2617 144.125 89.4209C145.101 89.5259 146.031 89.8473 146.75 90.5389C147.592 91.3503 148.095 92.4113 148.111 93.5854C148.125 94.598 147.69 95.4839 146.985 96.1985C146.353 96.84 145.658 97.1643 144.776 97.3073C143.545 97.5066 142.256 97.4445 141.012 97.4469L135.516 97.4537L116.128 97.465L89.9206 97.4709C87.6208 97.464 85.3213 97.4696 83.0217 97.4877C81.6023 97.5003 80.0979 97.6105 78.6874 97.4616C77.8344 97.3717 76.9125 97.05 76.2705 96.4633C75.5284 95.7849 75.0493 94.6423 75.0142 93.6447C74.975 92.5312 75.4524 91.4225 76.2316 90.6359C76.7923 90.0697 77.4866 89.6836 78.2767 89.5618C79.4947 89.3741 80.7913 89.4508 82.0213 89.4501L87.8025 89.4547L107.427 89.4501Z" fill="#FEFEFE"/>
<path d="M81.378 100.335C89.2997 100.206 97.2414 100.309 105.165 100.299C117.418 100.243 129.671 100.267 141.924 100.371C141.769 102.481 141.302 104.628 141.023 106.732C140.663 109.448 140.459 112.413 139.899 115.066C138.943 116.146 137.723 116.923 136.493 117.652C135.896 117.997 135.258 118.309 134.624 118.579C132.266 119.583 129.774 120.028 127.216 120.046C120.312 120.093 114.598 117.005 108.378 114.506C101.934 111.918 94.5206 110.32 87.6677 112.126C86.0536 112.552 84.5311 113.237 83.0006 113.892C82.7845 112.329 80.9117 100.81 81.0874 100.417L81.378 100.335Z" fill="#FEFEFE"/>
<path d="M109.332 49.8315L109.414 49.8293C109.419 51.2085 109.051 54.3142 110.036 55.314C110.226 55.5071 110.504 55.6884 110.782 55.694C111.082 55.7001 111.318 55.5411 111.497 55.3144C112.173 54.4575 111.849 53.3743 111.997 52.393C112.373 52.5714 115.681 52.7821 116.493 52.9333C116.875 53.0059 117.254 53.0854 117.633 53.172C118.011 53.2586 118.388 53.3522 118.762 53.4527C119.137 53.5532 119.51 53.6604 119.881 53.7746C120.252 53.8887 120.621 54.0096 120.987 54.1374C121.353 54.2652 121.717 54.3996 122.079 54.5407C122.44 54.6818 122.799 54.8295 123.155 54.9839C123.511 55.138 123.864 55.2988 124.214 55.4662C124.565 55.6335 124.912 55.8072 125.255 55.9874C125.599 56.1674 125.939 56.3537 126.276 56.5464C126.613 56.7389 126.946 56.9376 127.276 57.1424C127.606 57.3473 127.931 57.5581 128.253 57.7751C128.575 57.9918 128.893 58.2145 129.206 58.4432C129.52 58.6717 129.829 58.9058 130.134 59.1457C130.439 59.3857 130.74 59.6311 131.036 59.882C131.332 60.133 131.623 60.3894 131.91 60.6512C132.196 60.9128 132.478 61.1796 132.754 61.4517C139.922 68.393 142.652 76.843 142.812 86.5753L79.6454 86.6803C79.6552 84.1772 79.7706 81.7345 80.2216 79.2671C81.1084 74.4177 83.4207 69.1936 86.4593 65.3357C92.2124 58.0312 100.14 53.7506 109.34 52.6794C109.321 51.731 109.333 50.7802 109.332 49.8315Z" fill="#EE5720"/>
<path d="M101.581 64.3311C101.782 64.5399 101.949 64.9626 102.13 65.22C102.51 65.4317 103.051 65.3206 103.474 65.2925C103.108 65.5993 102.745 65.9086 102.384 66.2205C102.629 66.7438 102.836 67.2946 103.057 67.8292C102.684 67.5737 102.315 67.3131 101.949 67.0476L101.755 66.9718C101.323 67.0842 100.969 67.4866 100.641 67.778L100.847 66.1595L99.6704 65.3294C100.134 65.3444 100.619 65.4052 101.065 65.2599C101.387 65.0299 101.457 64.6882 101.581 64.3311Z" fill="#FDBD27"/>
<path d="M118.849 78.887C119.201 79.1202 119.318 79.7289 119.451 80.1174L120.751 80.1274L119.808 80.934C119.998 81.4105 120.126 81.912 120.269 82.4044C119.905 82.1597 119.538 81.9191 119.168 81.6827C118.881 81.8707 118.617 82.0632 118.282 82.1577C118.014 80.9747 118.083 80.8939 117.214 80.0392C117.608 80.0823 118.02 80.1709 118.398 80.0202C118.688 79.7249 118.75 79.2778 118.849 78.887Z" fill="#FDBD27"/>
<path d="M127.67 71.3687C128.034 71.5947 128.124 72.1507 128.248 72.5431C128.818 72.5374 129.368 72.4482 129.93 72.3621C129.443 72.7097 128.987 73.0736 128.532 73.4623C128.719 73.8915 128.835 74.3585 128.969 74.8066L127.915 74.0583C127.327 74.2343 126.833 74.6202 126.326 74.9586C126.542 74.4263 126.782 73.9028 127.013 73.3769L125.786 72.5178C126.229 72.5261 126.707 72.5818 127.128 72.4246C127.452 72.1531 127.538 71.7554 127.67 71.3687Z" fill="#FDBD27"/>
<path d="M119.029 64.4116C119.276 64.6311 119.377 65.0027 119.646 65.2193C119.968 65.4785 120.631 65.3678 121.027 65.3506L120.063 66.2169C120.132 66.6783 120.203 67.1393 120.277 67.5998C119.908 67.3923 119.466 67.0262 119.046 67.0582L117.937 67.7964C118.095 67.2392 118.231 66.6732 118.376 66.1124L116.936 65.3484C117.407 65.329 118.005 65.4549 118.451 65.2825C118.797 65.1486 118.904 64.7278 119.029 64.4116Z" fill="#FDBD27"/>
<path d="M101.602 78.9985C101.749 79.1187 101.728 79.0769 101.806 79.2065C101.961 79.4648 102.108 79.6876 102.296 79.9254C102.682 80.1503 103.269 80.0534 103.707 80.0401C103.351 80.4217 102.949 80.7547 102.555 81.0966L103.06 82.506L101.867 81.7421C101.436 81.8705 101.04 82.2057 100.672 82.4601L101.006 81.0826C100.585 80.6811 100.113 80.3535 99.6426 80.0136C100.126 80.0399 100.787 80.2211 101.229 80.0099C101.521 79.7204 101.535 79.3903 101.602 78.9985Z" fill="#FDBD27"/>
<path d="M110.441 71.5967C110.733 71.8393 110.861 72.4338 110.989 72.7901L112.55 72.7082C112.079 73.0283 111.626 73.3713 111.17 73.7128L111.71 75.0913C111.311 74.8498 110.89 74.6396 110.477 74.4201C110.026 74.5459 109.583 74.8005 109.159 75.0011L109.652 73.6261C109.233 73.2929 108.779 72.9978 108.34 72.6925L109.941 72.7426L110.441 71.5967Z" fill="#FDBD27"/>
<path d="M92.5856 71.3926C92.8866 71.6774 93.0255 72.2523 93.1666 72.6365L94.7143 72.6021L93.4593 73.5163L93.8343 74.9436C93.3539 74.7204 92.9475 74.4508 92.5185 74.1455C92.179 74.2788 91.7225 74.7522 91.4185 74.98L91.7572 73.5042L90.6459 72.6032L92.0795 72.644C92.2232 72.2186 92.4114 71.8061 92.5856 71.3926Z" fill="#FDBD27"/>
</svg>
